<svg width="78" height="24" viewBox="0 0 78 24" fill="none" xmlns="http://www.w3.org/2000/svg">
<path fill-rule="evenodd" clip-rule="evenodd" d="M39 6.25C39.1989 6.25 39.3897 6.32902 39.5303 6.46967C39.671 6.61032 39.75 6.80109 39.75 7V11.25H44C44.1989 11.25 44.3897 11.329 44.5303 11.4697C44.671 11.6103 44.75 11.8011 44.75 12C44.75 12.1989 44.671 12.3897 44.5303 12.5303C44.3897 12.671 44.1989 12.75 44 12.75H39.75V17C39.75 17.1989 39.671 17.3897 39.5303 17.5303C39.3897 17.671 39.1989 17.75 39 17.75C38.8011 17.75 38.6103 17.671 38.4697 17.5303C38.329 17.3897 38.25 17.1989 38.25 17V12.75H34C33.8011 12.75 33.6103 12.671 33.4697 12.5303C33.329 12.3897 33.25 12.1989 33.25 12C33.25 11.8011 33.329 11.6103 33.4697 11.4697C33.6103 11.329 33.8011 11.25 34 11.25H38.25V7C38.25 6.80109 38.329 6.61032 38.4697 6.46967C38.6103 6.32902 38.8011 6.25 39 6.25Z" fill="#868893"/>
</svg>
