<svg width="18" height="19" viewBox="0 0 18 19" fill="none" xmlns="http://www.w3.org/2000/svg">
<g clip-path="url(#clip0_88_1391)">
<path d="M10.3472 14.589V12.5533C10.3472 12.4543 10.3154 12.373 10.2517 12.3094C10.1881 12.2458 10.1068 12.214 10.0079 12.214H7.97217C7.87321 12.214 7.79192 12.2458 7.72831 12.3094C7.66469 12.373 7.63288 12.4543 7.63288 12.5533V14.589C7.63288 14.688 7.66469 14.7693 7.72831 14.8329C7.79192 14.8965 7.87321 14.9283 7.97217 14.9283H10.0079C10.1068 14.9283 10.1881 14.8965 10.2517 14.8329C10.3154 14.7693 10.3472 14.688 10.3472 14.589ZM13.0615 7.46401C13.0615 6.84198 12.8653 6.2659 12.473 5.73577C12.0807 5.20564 11.5912 4.79567 11.0045 4.50586C10.4179 4.21605 9.81703 4.07115 9.20208 4.07115C7.48444 4.07115 6.17325 4.82394 5.26848 6.32952C5.16246 6.49916 5.19073 6.6476 5.35331 6.77483L6.75286 7.8351C6.80234 7.87751 6.86949 7.89872 6.95431 7.89872C7.06741 7.89872 7.15576 7.85631 7.21938 7.77148C7.59401 7.29083 7.89795 6.96568 8.13121 6.79604C8.37154 6.6264 8.67548 6.54157 9.04304 6.54157C9.38232 6.54157 9.6845 6.63346 9.94957 6.81724C10.2146 7.00102 10.3472 7.20954 10.3472 7.4428C10.3472 7.7114 10.2765 7.92699 10.1351 8.08957C9.99375 8.25214 9.75342 8.41118 9.41413 8.56669C8.96882 8.7646 8.56062 9.07031 8.18952 9.48382C7.81843 9.89732 7.63288 10.3409 7.63288 10.8145V11.1961C7.63288 11.2951 7.66469 11.3764 7.72831 11.44C7.79192 11.5036 7.87321 11.5354 7.97217 11.5354H10.0079C10.1068 11.5354 10.1881 11.5036 10.2517 11.44C10.3154 11.3764 10.3472 11.2951 10.3472 11.1961C10.3472 11.0618 10.4232 10.8869 10.5751 10.6713C10.7271 10.4557 10.9197 10.2808 11.153 10.1465C11.3792 10.0193 11.5523 9.91853 11.6725 9.84431C11.7927 9.77009 11.9552 9.64639 12.1602 9.47321C12.3652 9.30004 12.5225 9.13039 12.632 8.96429C12.7416 8.79818 12.8406 8.58436 12.9289 8.32282C13.0173 8.06129 13.0615 7.77502 13.0615 7.46401ZM16.0408 5.41239C16.0408 5.41239 16.2228 5.72428 16.5868 6.34808C16.9509 6.97187 17.1329 8.02241 17.1329 9.49972C17.1329 10.977 16.7689 12.3395 16.0408 13.5871C15.3128 14.8346 14.3249 15.8225 13.0774 16.5505C11.8298 17.2786 10.4673 17.6426 8.99002 17.6426C7.51272 17.6426 6.15027 17.2786 4.90269 16.5505C3.65511 15.8225 2.66729 14.8346 1.93924 13.5871C1.21119 12.3395 0.847168 10.977 0.847168 9.49972C0.847168 8.02241 1.21119 6.65997 1.93924 5.41239C2.66729 4.16481 3.65511 3.17699 4.90269 2.44894C6.15027 1.72089 7.51272 1.35686 8.99002 1.35686C10.4673 1.35686 11.8298 1.72089 13.0774 2.44894C14.3249 3.17699 15.3128 4.16481 16.0408 5.41239Z" fill="#8EA5C0"/>
</g>
<defs>
<clipPath id="clip0_88_1391">
<rect width="16.3" height="19" fill="white" transform="matrix(1 0 0 -1 0.839844 19)"/>
</clipPath>
</defs>
</svg>
