<svg width="1488" height="24" viewBox="0 0 1488 24" fill="none" xmlns="http://www.w3.org/2000/svg">
<g clip-path="url(#clip0_83_47)">
<path fill-rule="evenodd" clip-rule="evenodd" d="M14.4891 -0.195312C7.74475 -0.195312 2.30518 5.27256 2.30518 12.0024C2.30518 18.7323 7.74475 24.2005 14.4891 24.2005C21.2335 24.2005 26.673 18.7323 26.673 12.0024C26.673 5.27256 21.2335 -0.195312 14.4891 -0.195312ZM14.4891 1.25509C20.4357 1.25509 25.2226 6.07028 25.2226 12.0024C25.2226 17.9346 20.4357 22.7501 14.4891 22.7501C8.54247 22.7501 3.75558 17.9346 3.75558 12.0024C3.75558 6.07028 8.54247 1.25509 14.4891 1.25509ZM14.4891 16.2233C15.0693 16.2233 15.5769 16.7017 15.5769 17.2891C15.5769 17.8693 15.0693 18.3479 14.4891 18.3479C13.9089 18.3479 13.4013 17.8693 13.4013 17.2891C13.4013 16.7017 13.9089 16.2233 14.4891 16.2233ZM13.7639 5.73698V13.8083C13.7639 14.2072 14.054 14.5335 14.4891 14.5335C14.9242 14.5335 15.2143 14.2072 15.2143 13.8083V5.73698C15.2143 5.33812 14.9242 5.01178 14.4891 5.01178C14.054 5.01178 13.7639 5.33812 13.7639 5.73698Z" fill="#96AEC1"/>
</g>
<defs>
<clipPath id="clip0_83_47">
<rect width="1488" height="24" fill="white"/>
</clipPath>
</defs>
</svg>
