<svg width="18" height="19" viewBox="0 0 18 19" fill="none" xmlns="http://www.w3.org/2000/svg">
<g clip-path="url(#clip0_88_1403)">
<path d="M13.1993 9.0233C13.3336 9.1576 13.4007 9.31664 13.4007 9.50042C13.4007 9.6842 13.3336 9.84324 13.1993 9.97754L7.43143 15.7454C7.29713 15.8797 7.13809 15.9468 6.95431 15.9468C6.77053 15.9468 6.61149 15.8797 6.47719 15.7454C6.34289 15.6111 6.27574 15.4521 6.27574 15.2683V12.2147H1.52574C1.34196 12.2147 1.18292 12.1476 1.04862 12.0133C0.914318 11.879 0.847168 11.7199 0.847168 11.5361V7.4647C0.847168 7.28092 0.914318 7.12188 1.04862 6.98758C1.18292 6.85328 1.34196 6.78613 1.52574 6.78613H6.27574V3.73256C6.27574 3.54878 6.34289 3.38974 6.47719 3.25544C6.61149 3.12114 6.77053 3.05399 6.95431 3.05399C7.13809 3.05399 7.29713 3.12114 7.43143 3.25544L13.1993 9.0233ZM17.1329 5.76828V13.2326C17.1329 14.0737 16.8342 14.7929 16.237 15.3902C15.6397 15.9875 14.9205 16.2861 14.0793 16.2861H10.6865C10.5946 16.2861 10.515 16.2526 10.4479 16.1854C10.3807 16.1183 10.3472 16.0387 10.3472 15.9468C10.3472 15.9186 10.3436 15.8479 10.3366 15.7348C10.3295 15.6217 10.3277 15.528 10.3313 15.4538C10.3348 15.3796 10.3454 15.2965 10.3631 15.2047C10.3807 15.1128 10.4161 15.0439 10.4691 14.9979C10.5221 14.952 10.5946 14.929 10.6865 14.929H14.0793C14.5458 14.929 14.9452 14.7629 15.2774 14.4307C15.6096 14.0984 15.7757 13.6991 15.7757 13.2326V5.76828C15.7757 5.30176 15.6096 4.90239 15.2774 4.57017C14.9452 4.23796 14.5458 4.07185 14.0793 4.07185H11.0257C11.0187 4.07185 10.9798 4.07185 10.9091 4.07185C10.8384 4.07185 10.7925 4.07185 10.7713 4.07185C10.7501 4.07185 10.7094 4.06831 10.6493 4.06124C10.5893 4.05418 10.5486 4.04357 10.5274 4.02944C10.5062 4.0153 10.4779 3.99586 10.4426 3.97112C10.4072 3.94638 10.3825 3.91457 10.3684 3.8757C10.3542 3.83682 10.3472 3.78911 10.3472 3.73256C10.3472 3.70429 10.3436 3.6336 10.3366 3.52051C10.3295 3.40741 10.3277 3.31376 10.3313 3.23954C10.3348 3.16532 10.3454 3.08226 10.3631 2.99037C10.3807 2.89848 10.4161 2.82957 10.4691 2.78362C10.5221 2.73768 10.5946 2.7147 10.6865 2.7147H14.0793C14.9205 2.7147 15.6397 3.01335 16.237 3.61063C16.8342 4.20792 17.1329 4.92713 17.1329 5.76828Z" fill="#8EA5C0"/>
</g>
<defs>
<clipPath id="clip0_88_1403">
<rect width="16.3" height="19" fill="white" transform="matrix(1 0 0 -1 0.839844 19)"/>
</clipPath>
</defs>
</svg>
