<svg width="22" height="19" viewBox="0 0 22 19" fill="none" xmlns="http://www.w3.org/2000/svg">
<g clip-path="url(#clip0_88_1397)">
<path d="M10.486 8.30692C10.486 8.30692 10.2872 8.50572 9.88958 8.90332C9.49198 9.30092 8.73124 9.49972 7.60735 9.49972C6.48347 9.49972 5.52393 9.10212 4.72872 8.30692C3.93352 7.51172 3.53592 6.55218 3.53592 5.42829C3.53592 4.30441 3.93352 3.34487 4.72872 2.54967C5.52393 1.75446 6.48347 1.35686 7.60735 1.35686C8.73124 1.35686 9.69078 1.75446 10.486 2.54967C11.2812 3.34487 11.6788 4.30441 11.6788 5.42829C11.6788 6.55218 11.2812 7.51172 10.486 8.30692ZM17.7859 10.8569H21.5181C21.61 10.8569 21.6895 10.8904 21.7566 10.9576C21.8238 11.0247 21.8574 11.1043 21.8574 11.1961V13.2319C21.8574 13.3238 21.8238 13.4033 21.7566 13.4704C21.6895 13.5376 21.61 13.5711 21.5181 13.5711H17.7859V17.3033C17.7859 17.3952 17.7523 17.4747 17.6852 17.5419C17.618 17.609 17.5385 17.6426 17.4466 17.6426H15.4109C15.319 17.6426 15.2395 17.609 15.1724 17.5419C15.1052 17.4747 15.0716 17.3952 15.0716 17.3033V13.5711H11.3395C11.2476 13.5711 11.1681 13.5376 11.1009 13.4704C11.0338 13.4033 11.0002 13.3238 11.0002 13.2319V11.1961C11.0002 11.1043 11.0338 11.0247 11.1009 10.9576C11.1681 10.8904 11.2476 10.8569 11.3395 10.8569H15.0716V7.12472C15.0716 7.03283 15.1052 6.95331 15.1724 6.88616C15.2395 6.81901 15.319 6.78544 15.4109 6.78544H17.4466C17.5385 6.78544 17.618 6.81901 17.6852 6.88616C17.7523 6.95331 17.7859 7.03283 17.7859 7.12472V10.8569ZM9.98235 13.2319C9.98235 13.5994 10.1167 13.9175 10.3853 14.1861C10.6539 14.4547 10.9719 14.589 11.3395 14.589H14.0538V17.1124C13.5731 17.4659 12.9688 17.6426 12.2407 17.6426H2.97398C2.1187 17.6426 1.43306 17.3987 0.917062 16.911C0.401065 16.4233 0.143066 15.7518 0.143066 14.8965C0.143066 14.5219 0.155436 14.1561 0.180176 13.7991C0.204915 13.4422 0.254395 13.0569 0.328613 12.6434C0.402832 12.2299 0.496489 11.8464 0.609584 11.493C0.722679 11.1396 0.874651 10.795 1.0655 10.4593C1.25635 10.1235 1.47547 9.83724 1.72287 9.60045C1.97026 9.36365 2.27244 9.17457 2.62939 9.0332C2.98635 8.89183 3.38042 8.82115 3.81159 8.82115C3.94589 8.82115 4.08373 8.88123 4.2251 9.0014C4.78351 9.43257 5.32954 9.75595 5.86321 9.97154C6.39688 10.1871 6.97826 10.2949 7.60735 10.2949C8.23644 10.2949 8.81782 10.1871 9.35149 9.97154C9.88516 9.75595 10.4312 9.43257 10.9896 9.0014C11.131 8.88123 11.2688 8.82115 11.4031 8.82115C12.3361 8.82115 13.1031 9.16044 13.7039 9.83901H11.3395C10.9719 9.83901 10.6539 9.97331 10.3853 10.2419C10.1167 10.5105 9.98235 10.8286 9.98235 11.1961V13.2319Z" fill="#8EA5C0"/>
</g>
<defs>
<clipPath id="clip0_88_1397">
<rect width="21.72" height="19" fill="white" transform="matrix(1 0 0 -1 0.140137 19)"/>
</clipPath>
</defs>
</svg>
