<svg width="60" height="60" viewBox="0 0 60 60" fill="none" xmlns="http://www.w3.org/2000/svg">
<g opacity="0.999982" filter="url(#filter0_d_83_68)">
<rect x="10" y="5" width="40" height="40" rx="12" fill="#0099FA" shape-rendering="crispEdges"/>
<path fill-rule="evenodd" clip-rule="evenodd" d="M30.0086 19.198H29.9913C29.8355 19.2 29.6788 19.24 29.5355 19.322C29.4923 19.347 29.4509 19.375 29.4115 19.407L19.2067 27.29C18.7807 27.619 18.6913 28.246 19.0076 28.689C19.324 29.132 19.9269 29.225 20.3529 28.896L30 21.444L39.6471 28.896C40.073 29.225 40.6759 29.132 40.9923 28.689C41.3086 28.246 41.2192 27.619 40.7932 27.29L30.5884 19.407C30.549 19.375 30.5067 19.347 30.4644 19.322C30.3211 19.24 30.1644 19.2 30.0086 19.198Z" fill="white"/>
</g>
<defs>
<filter id="filter0_d_83_68" x="0" y="0.0079999" width="60" height="60" filterUnits="userSpaceOnUse" color-interpolation-filters="sRGB">
<feFlood flood-opacity="0" result="BackgroundImageFix"/>
<feColorMatrix in="SourceAlpha" type="matrix" values="0 0 0 0 0 0 0 0 0 0 0 0 0 0 0 0 0 0 127 0" result="hardAlpha"/>
<feOffset dy="5.008"/>
<feGaussianBlur stdDeviation="5"/>
<feComposite in2="hardAlpha" operator="out"/>
<feColorMatrix type="matrix" values="0 0 0 0 0 0 0 0 0 0 0 0 0 0 0 0 0 0 0.3 0"/>
<feBlend mode="normal" in2="BackgroundImageFix" result="effect1_dropShadow_83_68"/>
<feBlend mode="normal" in="SourceGraphic" in2="effect1_dropShadow_83_68" result="shape"/>
</filter>
</defs>
</svg>
