<svg width="217" height="31" viewBox="0 0 217 31" fill="none" xmlns="http://www.w3.org/2000/svg">
<path d="M191.092 28.125V26.25H188.949C188.342 26.25 187.833 26.07 187.423 25.71C187.013 25.35 186.807 24.905 186.806 24.375V5.625C186.806 5.09375 187.012 4.64875 187.423 4.29C187.835 3.93125 188.343 3.75125 188.949 3.75H191.092V1.87501C191.092 1.34376 191.297 0.898756 191.709 0.540006C192.12 0.181257 192.629 0.00125646 193.235 6.46551e-06C193.84 -0.00124353 194.35 0.178757 194.762 0.540006C195.175 0.901256 195.38 1.34626 195.377 1.87501V3.75H197.52C198.127 3.75 198.637 3.93 199.048 4.29C199.46 4.65 199.665 5.095 199.663 5.625V24.375C199.663 24.9062 199.457 25.3519 199.046 25.7119C198.635 26.0719 198.126 26.2512 197.52 26.25H195.377V28.125C195.377 28.6562 195.172 29.1019 194.76 29.4619C194.349 29.8219 193.84 30.0012 193.235 30C192.629 29.9987 192.12 29.8187 191.709 29.46C191.297 29.1012 191.092 28.6562 191.092 28.125ZM191.092 22.5H195.377V7.5H191.092V22.5ZM208.235 28.125V20.625H206.092C205.485 20.625 204.976 20.445 204.566 20.085C204.156 19.725 203.95 19.28 203.949 18.75V9.375C203.949 8.84375 204.155 8.39875 204.566 8.04C204.977 7.68125 205.486 7.50125 206.092 7.5H208.235V1.87501C208.235 1.34376 208.44 0.898756 208.852 0.540006C209.263 0.181257 209.772 0.00125646 210.377 6.46551e-06C210.983 -0.00124353 211.492 0.178757 211.905 0.540006C212.318 0.901256 212.523 1.34626 212.52 1.87501V7.5H214.663C215.27 7.5 215.78 7.68 216.191 8.04C216.602 8.4 216.807 8.845 216.806 9.375V18.75C216.806 19.2812 216.6 19.7269 216.189 20.0869C215.777 20.4469 215.269 20.6262 214.663 20.625H212.52V28.125C212.52 28.6562 212.315 29.1019 211.903 29.4619C211.492 29.8219 210.983 30.0012 210.377 30C209.772 29.9987 209.263 29.8187 208.852 29.46C208.44 29.1012 208.235 28.6562 208.235 28.125ZM208.235 16.875H212.52V11.25H208.235V16.875Z" fill="#0F80C2"/>
<path d="M6.75 25V8.314H0V5.965H16.281V8.314H9.531V25H6.75Z" fill="white"/>
<path d="M16.2319 25V11.824H18.8779V14.173C19.5619 12.607 20.9839 11.734 23.1439 11.554L24.0349 11.5L24.2239 13.822L22.5769 13.984C20.1829 14.218 18.9859 15.451 18.9859 17.683V25H16.2319Z" fill="white"/>
<path d="M30.3843 25.243C29.4663 25.243 28.6473 25.063 27.9273 24.703C27.2073 24.343 26.6313 23.857 26.1993 23.245C25.7853 22.633 25.5783 21.94 25.5783 21.166C25.5783 20.194 25.8213 19.429 26.3073 18.871C26.8113 18.313 27.6303 17.908 28.7643 17.656C29.9163 17.404 31.4643 17.278 33.4083 17.278H34.3263V16.576C34.3263 15.55 34.1103 14.812 33.6783 14.362C33.2463 13.912 32.5353 13.687 31.5453 13.687C30.7893 13.687 30.0333 13.804 29.2773 14.038C28.5213 14.254 27.7473 14.605 26.9553 15.091L26.1183 13.174C26.8023 12.688 27.6573 12.301 28.6833 12.013C29.7093 11.725 30.6903 11.581 31.6263 11.581C33.4263 11.581 34.7583 12.013 35.6223 12.877C36.4863 13.723 36.9183 15.055 36.9183 16.873V25H34.3533V22.813C34.0293 23.569 33.5253 24.163 32.8413 24.595C32.1573 25.027 31.3383 25.243 30.3843 25.243ZM30.9243 23.299C31.8963 23.299 32.7063 22.957 33.3543 22.273C34.0023 21.589 34.3263 20.725 34.3263 19.681V18.952H33.4353C32.1213 18.952 31.0863 19.015 30.3303 19.141C29.5923 19.267 29.0613 19.483 28.7373 19.789C28.4313 20.077 28.2783 20.482 28.2783 21.004C28.2783 21.688 28.5123 22.246 28.9803 22.678C29.4483 23.092 30.0963 23.299 30.9243 23.299Z" fill="white"/>
<path d="M45.6962 25.243C44.5442 25.243 43.5272 24.973 42.6452 24.433C41.7812 23.875 41.1062 23.083 40.6202 22.057C40.1342 21.031 39.8912 19.816 39.8912 18.412C39.8912 17.008 40.1342 15.802 40.6202 14.794C41.1062 13.768 41.7812 12.976 42.6452 12.418C43.5092 11.86 44.5262 11.581 45.6962 11.581C46.6862 11.581 47.5682 11.797 48.3422 12.229C49.1162 12.661 49.6922 13.246 50.0702 13.984V5.965H52.7972V25H50.1242V22.705C49.7462 23.497 49.1612 24.118 48.3692 24.568C47.5952 25.018 46.7042 25.243 45.6962 25.243ZM46.3982 23.137C47.5142 23.137 48.4142 22.732 49.0982 21.922C49.7822 21.112 50.1242 19.942 50.1242 18.412C50.1242 16.882 49.7822 15.721 49.0982 14.929C48.4142 14.119 47.5142 13.714 46.3982 13.714C45.2642 13.714 44.3552 14.119 43.6712 14.929C42.9872 15.721 42.6452 16.882 42.6452 18.412C42.6452 19.942 42.9872 21.112 43.6712 21.922C44.3552 22.732 45.2642 23.137 46.3982 23.137Z" fill="white"/>
<path d="M56.3834 8.773V5.938H59.5694V8.773H56.3834ZM56.6264 25V11.824H59.3534V25H56.6264Z" fill="white"/>
<path d="M63.1918 25V11.824H65.8378V14.011C66.2878 13.219 66.8998 12.616 67.6738 12.202C68.4658 11.788 69.3478 11.581 70.3198 11.581C73.4338 11.581 74.9908 13.345 74.9908 16.873V25H72.2638V17.035C72.2638 15.901 72.0388 15.073 71.5888 14.551C71.1568 14.029 70.4728 13.768 69.5368 13.768C68.4388 13.768 67.5568 14.119 66.8908 14.821C66.2428 15.505 65.9188 16.414 65.9188 17.548V25H63.1918Z" fill="white"/>
<path d="M84.7155 30.103C83.5275 30.103 82.4205 29.959 81.3945 29.671C80.3685 29.401 79.4594 28.969 78.6674 28.375L79.5045 26.431C80.2965 26.971 81.1065 27.367 81.9345 27.619C82.7625 27.871 83.6265 27.997 84.5265 27.997C87.0465 27.997 88.3064 26.737 88.3064 24.217V22.138C87.9284 22.93 87.3345 23.551 86.5245 24.001C85.7325 24.451 84.8415 24.676 83.8515 24.676C82.6635 24.676 81.6285 24.406 80.7465 23.866C79.8645 23.308 79.1805 22.543 78.6945 21.571C78.2085 20.581 77.9655 19.429 77.9655 18.115C77.9655 16.819 78.2085 15.685 78.6945 14.713C79.1805 13.723 79.8645 12.958 80.7465 12.418C81.6285 11.86 82.6635 11.581 83.8515 11.581C84.8595 11.581 85.7595 11.806 86.5515 12.256C87.3435 12.706 87.9284 13.327 88.3064 14.119V11.824H90.9525V23.893C90.9525 25.963 90.4215 27.511 89.3595 28.537C88.2975 29.581 86.7495 30.103 84.7155 30.103ZM84.4995 22.543C85.6515 22.543 86.5695 22.147 87.2535 21.355C87.9375 20.563 88.2795 19.483 88.2795 18.115C88.2795 16.747 87.9375 15.676 87.2535 14.902C86.5695 14.11 85.6515 13.714 84.4995 13.714C83.3475 13.714 82.4295 14.11 81.7455 14.902C81.0615 15.676 80.7195 16.747 80.7195 18.115C80.7195 19.483 81.0615 20.563 81.7455 21.355C82.4295 22.147 83.3475 22.543 84.4995 22.543Z" fill="white"/>
<path d="M102.169 25V5.965H110.107C112.087 5.965 113.617 6.406 114.697 7.288C115.795 8.152 116.344 9.367 116.344 10.933C116.344 11.959 116.074 12.841 115.534 13.579C114.994 14.317 114.256 14.857 113.32 15.199C114.418 15.487 115.273 16.018 115.885 16.792C116.497 17.566 116.803 18.547 116.803 19.735C116.803 21.427 116.236 22.732 115.102 23.65C113.986 24.55 112.429 25 110.431 25H102.169ZM104.869 14.281H109.675C112.303 14.281 113.617 13.255 113.617 11.203C113.617 9.151 112.303 8.125 109.675 8.125H104.869V14.281ZM104.869 22.84H110.107C112.753 22.84 114.076 21.769 114.076 19.627C114.076 17.503 112.753 16.441 110.107 16.441H104.869V22.84Z" fill="white"/>
<path d="M120.277 25V11.824H122.923V14.173C123.607 12.607 125.029 11.734 127.189 11.554L128.08 11.5L128.269 13.822L126.622 13.984C124.228 14.218 123.031 15.451 123.031 17.683V25H120.277Z" fill="white"/>
<path d="M135.888 25.243C134.556 25.243 133.404 24.964 132.432 24.406C131.46 23.848 130.704 23.065 130.164 22.057C129.642 21.031 129.381 19.816 129.381 18.412C129.381 17.008 129.642 15.802 130.164 14.794C130.704 13.768 131.46 12.976 132.432 12.418C133.404 11.86 134.556 11.581 135.888 11.581C137.184 11.581 138.318 11.86 139.29 12.418C140.262 12.976 141.018 13.768 141.558 14.794C142.098 15.802 142.368 17.008 142.368 18.412C142.368 19.816 142.098 21.031 141.558 22.057C141.018 23.065 140.262 23.848 139.29 24.406C138.318 24.964 137.184 25.243 135.888 25.243ZM135.888 23.137C137.004 23.137 137.904 22.732 138.588 21.922C139.272 21.112 139.614 19.942 139.614 18.412C139.614 16.882 139.272 15.721 138.588 14.929C137.904 14.119 137.004 13.714 135.888 13.714C134.754 13.714 133.845 14.119 133.161 14.929C132.477 15.721 132.135 16.882 132.135 18.412C132.135 19.942 132.477 21.112 133.161 21.922C133.845 22.732 134.754 23.137 135.888 23.137Z" fill="white"/>
<path d="M145.431 25V5.965H148.158V17.575H148.212L153.936 11.824H157.311L150.993 18.169L157.797 25H154.395L148.212 18.979H148.158V25H145.431Z" fill="white"/>
<path d="M165.246 25.243C163.086 25.243 161.385 24.64 160.143 23.434C158.901 22.21 158.28 20.545 158.28 18.439C158.28 17.089 158.55 15.901 159.09 14.875C159.648 13.831 160.413 13.021 161.385 12.445C162.357 11.869 163.473 11.581 164.733 11.581C166.551 11.581 167.982 12.166 169.026 13.336C170.07 14.488 170.592 16.081 170.592 18.115V19.033H160.926C161.124 21.769 162.573 23.137 165.273 23.137C166.029 23.137 166.767 23.02 167.487 22.786C168.225 22.552 168.918 22.165 169.566 21.625L170.376 23.515C169.782 24.055 169.017 24.478 168.081 24.784C167.145 25.09 166.2 25.243 165.246 25.243ZM164.841 13.498C163.707 13.498 162.807 13.849 162.141 14.551C161.475 15.253 161.07 16.189 160.926 17.359H168.297C168.243 16.135 167.919 15.19 167.325 14.524C166.731 13.84 165.903 13.498 164.841 13.498Z" fill="white"/>
<path d="M173.565 25V11.824H176.211V14.173C176.895 12.607 178.317 11.734 180.477 11.554L181.368 11.5L181.557 13.822L179.91 13.984C177.516 14.218 176.319 15.451 176.319 17.683V25H173.565Z" fill="white"/>
</svg>
