<svg width="203" height="29" viewBox="0 0 203 29" fill="none" xmlns="http://www.w3.org/2000/svg">
<path d="M178.58 26.75V25H176.58C176.013 25 175.538 24.832 175.156 24.496C174.773 24.16 174.581 23.7447 174.58 23.25V5.75C174.58 5.25417 174.772 4.83884 175.156 4.504C175.54 4.16917 176.014 4.00117 176.58 4H178.58V2.25001C178.58 1.75417 178.772 1.33884 179.156 1.00401C179.54 0.669173 180.014 0.501173 180.58 0.500006C181.145 0.498839 181.62 0.666839 182.006 1.00401C182.391 1.34117 182.582 1.75651 182.58 2.25001V4H184.58C185.146 4 185.622 4.168 186.006 4.504C186.39 4.84 186.581 5.25534 186.58 5.75V23.25C186.58 23.7458 186.388 24.1617 186.004 24.4977C185.62 24.8337 185.145 25.0012 184.58 25H182.58V26.75C182.58 27.2458 182.388 27.6617 182.004 27.9977C181.62 28.3337 181.145 28.5012 180.58 28.5C180.014 28.4988 179.54 28.3308 179.156 27.996C178.772 27.6612 178.58 27.2458 178.58 26.75ZM178.58 21.5H182.58V7.5H178.58V21.5ZM194.58 26.75V19.75H192.58C192.013 19.75 191.538 19.582 191.156 19.246C190.773 18.91 190.581 18.4947 190.58 18V9.25C190.58 8.75417 190.772 8.33884 191.156 8.004C191.54 7.66917 192.014 7.50117 192.58 7.5H194.58V2.25001C194.58 1.75417 194.772 1.33884 195.156 1.00401C195.54 0.669173 196.014 0.501173 196.58 0.500006C197.145 0.498839 197.62 0.666839 198.006 1.00401C198.391 1.34117 198.582 1.75651 198.58 2.25001V7.5H200.58C201.146 7.5 201.622 7.668 202.006 8.004C202.39 8.34 202.581 8.75534 202.58 9.25V18C202.58 18.4958 202.388 18.9117 202.004 19.2477C201.62 19.5837 201.145 19.7512 200.58 19.75H198.58V26.75C198.58 27.2458 198.388 27.6617 198.004 27.9977C197.62 28.3337 197.145 28.5012 196.58 28.5C196.014 28.4988 195.54 28.3308 195.156 27.996C194.772 27.6612 194.58 27.2458 194.58 26.75ZM194.58 16.25H198.58V11H194.58V16.25Z" fill="#0F80C2"/>
<path d="M6.25 22.5V7.05H0V4.875H15.075V7.05H8.825V22.5H6.25Z" fill="white"/>
<path d="M15.0295 22.5V10.3H17.4795V13.225H17.2295C17.4962 12.225 17.9712 11.4667 18.6545 10.95C19.3545 10.4333 20.2795 10.1333 21.4295 10.05L22.2545 10L22.4295 12.15L20.9045 12.3C19.8212 12.4 18.9962 12.7417 18.4295 13.325C17.8628 13.9083 17.5795 14.7083 17.5795 15.725V22.5H15.0295Z" fill="white"/>
<path d="M28.1336 22.725C27.2836 22.725 26.5169 22.5583 25.8336 22.225C25.1669 21.8917 24.6419 21.4417 24.2586 20.875C23.8753 20.3083 23.6836 19.6667 23.6836 18.95C23.6836 18.05 23.9086 17.3417 24.3586 16.825C24.8253 16.2917 25.5836 15.9167 26.6336 15.7C27.7003 15.4667 29.1336 15.35 30.9336 15.35H32.1086V16.9H30.9586C30.0586 16.9 29.3003 16.9333 28.6836 17C28.0669 17.0667 27.5753 17.175 27.2086 17.325C26.8419 17.4583 26.5753 17.65 26.4086 17.9C26.2586 18.15 26.1836 18.45 26.1836 18.8C26.1836 19.4333 26.4003 19.95 26.8336 20.35C27.2669 20.7333 27.8669 20.925 28.6336 20.925C29.2503 20.925 29.7919 20.7833 30.2586 20.5C30.7253 20.2 31.0919 19.8 31.3586 19.3C31.6419 18.8 31.7836 18.225 31.7836 17.575V14.7C31.7836 13.75 31.5836 13.0667 31.1836 12.65C30.7836 12.2333 30.1253 12.025 29.2086 12.025C28.5086 12.025 27.8086 12.1333 27.1086 12.35C26.4086 12.55 25.6919 12.875 24.9586 13.325L24.1836 11.55C24.6169 11.25 25.1169 10.9917 25.6836 10.775C26.2503 10.5583 26.8419 10.3917 27.4586 10.275C28.0919 10.1417 28.7003 10.075 29.2836 10.075C30.4003 10.075 31.3169 10.25 32.0336 10.6C32.7669 10.95 33.3086 11.4833 33.6586 12.2C34.0086 12.9167 34.1836 13.8417 34.1836 14.975V22.5H31.8086V19.775H32.0336C31.9003 20.3917 31.6503 20.925 31.2836 21.375C30.9336 21.8083 30.4919 22.1417 29.9586 22.375C29.4253 22.6083 28.8169 22.725 28.1336 22.725Z" fill="white"/>
<path d="M42.3113 22.725C41.2447 22.725 40.303 22.475 39.4863 21.975C38.6863 21.4583 38.0613 20.725 37.6113 19.775C37.1613 18.8083 36.9363 17.6833 36.9363 16.4C36.9363 15.0833 37.1613 13.9583 37.6113 13.025C38.0613 12.0917 38.6863 11.3667 39.4863 10.85C40.303 10.3333 41.2447 10.075 42.3113 10.075C43.378 10.075 44.2947 10.3417 45.0613 10.875C45.8447 11.3917 46.3697 12.0917 46.6363 12.975H46.3613V4.875H48.8863V22.5H46.4113V19.75H46.6613C46.3947 20.65 45.8697 21.375 45.0863 21.925C44.3197 22.4583 43.3947 22.725 42.3113 22.725ZM42.9613 20.775C43.9947 20.775 44.828 20.4 45.4613 19.65C46.0947 18.9 46.4113 17.8167 46.4113 16.4C46.4113 14.9667 46.0947 13.8833 45.4613 13.15C44.828 12.4167 43.9947 12.05 42.9613 12.05C41.9113 12.05 41.0697 12.4167 40.4363 13.15C39.803 13.8833 39.4863 14.9667 39.4863 16.4C39.4863 17.8167 39.803 18.9 40.4363 19.65C41.0697 20.4 41.9113 20.775 42.9613 20.775Z" fill="white"/>
<path d="M52.2068 7.475V4.85H55.1568V7.475H52.2068ZM52.4318 22.5V10.3H54.9568V22.5H52.4318Z" fill="white"/>
<path d="M58.5109 22.5V10.3H60.9609V12.9H60.6859C61.0526 11.9667 61.6276 11.2667 62.4109 10.8C63.1943 10.3167 64.0943 10.075 65.1109 10.075C66.0776 10.075 66.8776 10.2583 67.5109 10.625C68.1609 10.975 68.6443 11.5167 68.9609 12.25C69.2776 12.9667 69.4359 13.875 69.4359 14.975V22.5H66.9109V15.125C66.9109 14.425 66.8193 13.8583 66.6359 13.425C66.4526 12.975 66.1776 12.6417 65.8109 12.425C65.4443 12.2083 64.9693 12.1 64.3859 12.1C63.7193 12.1 63.1276 12.2417 62.6109 12.525C62.1109 12.8083 61.7193 13.2167 61.4359 13.75C61.1693 14.2833 61.0359 14.9 61.0359 15.6V22.5H58.5109Z" fill="white"/>
<path d="M78.4402 27.225C77.3402 27.225 76.3152 27.0917 75.3652 26.825C74.4152 26.5583 73.5736 26.1583 72.8402 25.625L73.6152 23.825C74.0986 24.1417 74.5902 24.4083 75.0902 24.625C75.6069 24.8583 76.1236 25.025 76.6402 25.125C77.1736 25.225 77.7152 25.275 78.2652 25.275C79.4319 25.275 80.3069 24.975 80.8902 24.375C81.4736 23.7917 81.7652 22.925 81.7652 21.775V19.225H81.9902C81.7402 20.1417 81.2152 20.8667 80.4152 21.4C79.6152 21.9333 78.6902 22.2 77.6402 22.2C76.5402 22.2 75.5819 21.95 74.7652 21.45C73.9486 20.9333 73.3152 20.225 72.8652 19.325C72.4152 18.4083 72.1902 17.3417 72.1902 16.125C72.1902 14.9083 72.4152 13.85 72.8652 12.95C73.3152 12.05 73.9486 11.35 74.7652 10.85C75.5819 10.3333 76.5402 10.075 77.6402 10.075C78.7069 10.075 79.6319 10.3417 80.4152 10.875C81.2152 11.4083 81.7319 12.1333 81.9652 13.05H81.7652V10.3H84.2152V21.475C84.2152 22.7417 83.9986 23.8 83.5652 24.65C83.1319 25.5167 82.4819 26.1583 81.6152 26.575C80.7652 27.0083 79.7069 27.225 78.4402 27.225ZM78.2402 20.225C79.3236 20.225 80.1736 19.8583 80.7902 19.125C81.4236 18.3917 81.7402 17.3917 81.7402 16.125C81.7402 14.875 81.4236 13.8833 80.7902 13.15C80.1736 12.4167 79.3236 12.05 78.2402 12.05C77.1736 12.05 76.3236 12.4167 75.6902 13.15C75.0569 13.8833 74.7402 14.875 74.7402 16.125C74.7402 17.3917 75.0569 18.3917 75.6902 19.125C76.3236 19.8583 77.1736 20.225 78.2402 20.225Z" fill="white"/>
<path d="M94.6014 22.5V4.875H101.951C103.785 4.875 105.201 5.28333 106.201 6.1C107.218 6.9 107.726 8.025 107.726 9.475C107.726 10.5417 107.41 11.4417 106.776 12.175C106.143 12.9083 105.285 13.4 104.201 13.65V13.275C105.018 13.3917 105.718 13.6417 106.301 14.025C106.901 14.3917 107.36 14.8833 107.676 15.5C107.993 16.1 108.151 16.8083 108.151 17.625C108.151 18.6583 107.918 19.5417 107.451 20.275C106.985 21.0083 106.31 21.5667 105.426 21.95C104.543 22.3167 103.485 22.5 102.251 22.5H94.6014ZM97.1014 20.5H101.951C102.451 20.5 102.893 20.4667 103.276 20.4C103.676 20.3167 104.018 20.2 104.301 20.05C104.601 19.8833 104.851 19.6833 105.051 19.45C105.251 19.2 105.393 18.9167 105.476 18.6C105.576 18.2833 105.626 17.925 105.626 17.525C105.626 17.125 105.576 16.7667 105.476 16.45C105.393 16.1333 105.251 15.8583 105.051 15.625C104.851 15.3917 104.601 15.2 104.301 15.05C104.018 14.8833 103.676 14.7667 103.276 14.7C102.893 14.6167 102.451 14.575 101.951 14.575H97.1014V20.5ZM97.1014 12.575H101.551C102.751 12.575 103.66 12.3333 104.276 11.85C104.893 11.3667 105.201 10.6583 105.201 9.725C105.201 8.79167 104.893 8.08333 104.276 7.6C103.66 7.11667 102.751 6.875 101.551 6.875H97.1014V12.575Z" fill="white"/>
<path d="M111.367 22.5V10.3H113.817V13.225H113.567C113.834 12.225 114.309 11.4667 114.992 10.95C115.692 10.4333 116.617 10.1333 117.767 10.05L118.592 10L118.767 12.15L117.242 12.3C116.159 12.4 115.334 12.7417 114.767 13.325C114.201 13.9083 113.917 14.7083 113.917 15.725V22.5H111.367Z" fill="white"/>
<path d="M125.823 22.725C124.589 22.725 123.523 22.4667 122.623 21.95C121.739 21.4333 121.048 20.7 120.548 19.75C120.048 18.8 119.798 17.6833 119.798 16.4C119.798 15.1 120.048 13.9833 120.548 13.05C121.048 12.1 121.739 11.3667 122.623 10.85C123.523 10.3333 124.589 10.075 125.823 10.075C127.039 10.075 128.089 10.3333 128.973 10.85C129.873 11.3667 130.573 12.1 131.073 13.05C131.573 14 131.823 15.1167 131.823 16.4C131.823 17.6833 131.573 18.8 131.073 19.75C130.573 20.7 129.873 21.4333 128.973 21.95C128.089 22.4667 127.039 22.725 125.823 22.725ZM125.798 20.775C126.848 20.775 127.689 20.4 128.323 19.65C128.956 18.9 129.273 17.8167 129.273 16.4C129.273 14.9667 128.956 13.8833 128.323 13.15C127.689 12.4167 126.848 12.05 125.798 12.05C124.764 12.05 123.931 12.4167 123.298 13.15C122.664 13.8833 122.348 14.9667 122.348 16.4C122.348 17.8167 122.664 18.9 123.298 19.65C123.931 20.4 124.764 20.775 125.798 20.775Z" fill="white"/>
<path d="M134.658 22.5V4.875H137.183V15.625H137.233L142.533 10.3H145.658L139.233 16.75V15.575L146.108 22.5H142.958L137.233 16.925H137.183V22.5H134.658Z" fill="white"/>
<path d="M153.005 22.725C151.672 22.725 150.522 22.475 149.555 21.975C148.605 21.4583 147.864 20.7333 147.33 19.8C146.814 18.85 146.555 17.725 146.555 16.425C146.555 15.1583 146.814 14.05 147.33 13.1C147.847 12.15 148.555 11.4083 149.455 10.875C150.355 10.3417 151.38 10.075 152.53 10.075C153.664 10.075 154.63 10.325 155.43 10.825C156.247 11.3083 156.872 12 157.305 12.9C157.739 13.8 157.955 14.875 157.955 16.125V16.975H148.555V15.425H156.255L155.83 15.775C155.83 14.525 155.555 13.5583 155.005 12.875C154.455 12.1917 153.664 11.85 152.63 11.85C151.847 11.85 151.18 12.0333 150.63 12.4C150.097 12.7667 149.689 13.275 149.405 13.925C149.122 14.575 148.98 15.3333 148.98 16.2V16.35C148.98 17.3167 149.13 18.1333 149.43 18.8C149.747 19.45 150.205 19.9417 150.805 20.275C151.405 20.6083 152.147 20.775 153.03 20.775C153.73 20.775 154.414 20.6667 155.08 20.45C155.764 20.2167 156.405 19.8583 157.005 19.375L157.755 21.125C157.205 21.625 156.497 22.0167 155.63 22.3C154.764 22.5833 153.889 22.725 153.005 22.725Z" fill="white"/>
<path d="M160.708 22.5V10.3H163.158V13.225H162.908C163.175 12.225 163.65 11.4667 164.333 10.95C165.033 10.4333 165.958 10.1333 167.108 10.05L167.933 10L168.108 12.15L166.583 12.3C165.5 12.4 164.675 12.7417 164.108 13.325C163.542 13.9083 163.258 14.7083 163.258 15.725V22.5H160.708Z" fill="white"/>
</svg>
