<svg width="21" height="31" viewBox="0 0 21 31" fill="none" xmlns="http://www.w3.org/2000/svg">
<path d="M14.5385 11V20H19.3846V11H14.5385ZM13.7308 9.5H20.1923C20.4065 9.5 20.612 9.57902 20.7634 9.71967C20.9149 9.86032 21 10.0511 21 10.25V20.75C21 20.9489 20.9149 21.1397 20.7634 21.2803C20.612 21.421 20.4065 21.5 20.1923 21.5H13.7308C13.5166 21.5 13.3111 21.421 13.1596 21.2803C13.0082 21.1397 12.9231 20.9489 12.9231 20.75V10.25C12.9231 10.0511 13.0082 9.86032 13.1596 9.71967C13.3111 9.57902 13.5166 9.5 13.7308 9.5Z" fill="#D1D4DC"/>
<path d="M16.1538 5H17.7692V10.25H16.1538V5ZM16.1538 20.75H17.7692V26H16.1538V20.75Z" fill="#D1D4DC"/>
<path d="M1.61538 6.5V24.5H6.46154V6.5H1.61538ZM0.807692 5H7.26923C7.48344 5 7.68888 5.07902 7.84036 5.21967C7.99183 5.36032 8.07692 5.55109 8.07692 5.75V25.25C8.07692 25.4489 7.99183 25.6397 7.84036 25.7803C7.68888 25.921 7.48344 26 7.26923 26H0.807692C0.593479 26 0.388039 25.921 0.236567 25.7803C0.0850953 25.6397 0 25.4489 0 25.25V5.75C0 5.55109 0.0850953 5.36032 0.236567 5.21967C0.388039 5.07902 0.593479 5 0.807692 5Z" fill="#D1D4DC"/>
<path d="M3.23077 0.5H4.84615V5.75H3.23077V0.5ZM3.23077 25.25H4.84615V30.5H3.23077V25.25Z" fill="#D1D4DC"/>
</svg>
