<svg width="17" height="17" viewBox="0 0 17 17" fill="none" xmlns="http://www.w3.org/2000/svg">
<path d="M1 5.8C1 4.12 1 3.28 1.25433 2.638C1.47803 2.07354 1.83496 1.61462 2.27398 1.327C2.77331 1 3.42663 1 4.73328 1H12.2667C13.5734 1 14.2267 1 14.726 1.327C15.1647 1.61479 15.5214 2.07369 15.7449 2.638C16 3.28 16 4.12 16 5.8V11.2C16 12.88 16 13.72 15.7457 14.362C15.522 14.9265 15.165 15.3854 14.726 15.673C14.2267 16 13.5734 16 12.2667 16H4.73328C3.42663 16 2.77331 16 2.27398 15.673C1.83525 15.3852 1.4786 14.9263 1.25511 14.362C1 13.72 1 12.88 1 11.2V5.8Z" stroke="#96AEC1" stroke-width="1.5" stroke-linecap="round" stroke-linejoin="round"/>
</svg>
