<svg width="23" height="23" viewBox="0 0 23 23" fill="none" xmlns="http://www.w3.org/2000/svg">
<path d="M20.7514 -7.15256e-07C21.351 -7.15256e-07 21.8757 0.198939 22.3254 0.596818C22.7751 0.994698 23 1.49312 23 2.09208C23 2.63114 22.8073 3.27716 22.4218 4.03013C19.5778 9.4122 17.5862 12.6295 16.4469 13.6819C15.616 14.4606 14.6823 14.8499 13.6458 14.8499C12.5665 14.8499 11.6392 14.4541 10.864 13.6627C10.0887 12.8712 9.70112 11.9321 9.70112 10.8454C9.70112 9.75019 10.0952 8.84319 10.8832 8.12444L19.081 0.69308C19.5864 0.231026 20.1432 -7.15256e-07 20.7514 -7.15256e-07ZM9.07151 13.2712C9.40559 13.9215 9.86173 14.4777 10.4399 14.9397C11.0182 15.4018 11.6628 15.7269 12.3737 15.9152L12.3866 16.8265C12.4209 18.649 11.8662 20.1336 10.7226 21.2801C9.57905 22.4267 8.08641 23 6.24469 23C5.19106 23 4.25736 22.8011 3.44358 22.4032C2.6298 22.0053 1.97663 21.4598 1.48408 20.7667C0.991527 20.0737 0.621043 19.2907 0.372626 18.418C0.124209 17.5452 0 16.604 0 15.5943C0.0599628 15.6371 0.235568 15.7654 0.526816 15.9794C0.818063 16.1933 1.08361 16.3836 1.32346 16.5505C1.56331 16.7174 1.81601 16.8735 2.08156 17.019C2.34711 17.1644 2.54413 17.2372 2.67263 17.2372C3.02384 17.2372 3.2594 17.0789 3.37933 16.7623C3.59348 16.1975 3.83976 15.7162 4.11816 15.3184C4.39656 14.9205 4.69423 14.5953 5.01117 14.3429C5.32812 14.0905 5.70503 13.8873 6.1419 13.7333C6.57877 13.5792 7.01993 13.4701 7.46536 13.406C7.9108 13.3418 8.44618 13.2969 9.07151 13.2712Z" fill="#D1D4DC"/>
</svg>
