<svg width="20" height="20" viewBox="0 0 20 20" fill="none" xmlns="http://www.w3.org/2000/svg">
<path d="M2.85714 18.7125V17.465H1.42857C1.02381 17.465 0.684762 17.3452 0.411429 17.1057C0.138095 16.8662 0.000952381 16.5701 0 16.2175V3.7425C0 3.38904 0.137143 3.09297 0.411429 2.85428C0.685714 2.61559 1.02476 2.49583 1.42857 2.495H2.85714V1.2475C2.85714 0.894046 2.99429 0.597973 3.26857 0.359284C3.54286 0.120596 3.8819 0.000835968 4.28571 4.30172e-06C4.68952 -0.000827365 5.02905 0.118933 5.30428 0.359284C5.57952 0.599636 5.71619 0.895709 5.71428 1.2475V2.495H7.14286C7.54762 2.495 7.88714 2.61476 8.16143 2.85428C8.43571 3.0938 8.57238 3.38988 8.57143 3.7425V16.2175C8.57143 16.571 8.43428 16.8674 8.16 17.107C7.88571 17.3465 7.54666 17.4658 7.14286 17.465H5.71428V18.7125C5.71428 19.066 5.57714 19.3624 5.30286 19.602C5.02857 19.8415 4.68952 19.9608 4.28571 19.96C3.8819 19.9592 3.54286 19.8394 3.26857 19.6007C2.99429 19.362 2.85714 19.066 2.85714 18.7125ZM2.85714 14.97H5.71428V4.99H2.85714V14.97ZM14.2857 18.7125V13.7225H12.8571C12.4524 13.7225 12.1133 13.6027 11.84 13.3632C11.5667 13.1237 11.4295 12.8276 11.4286 12.475V6.2375C11.4286 5.88404 11.5657 5.58797 11.84 5.34928C12.1143 5.11059 12.4533 4.99083 12.8571 4.99H14.2857V1.2475C14.2857 0.894046 14.4229 0.597973 14.6971 0.359284C14.9714 0.120596 15.3105 0.000835968 15.7143 4.30172e-06C16.1181 -0.000827365 16.4576 0.118933 16.7329 0.359284C17.0081 0.599636 17.1448 0.895709 17.1429 1.2475V4.99H18.5714C18.9762 4.99 19.3157 5.10976 19.59 5.34928C19.8643 5.5888 20.0009 5.88487 20 6.2375V12.475C20 12.8285 19.8629 13.1249 19.5886 13.3645C19.3143 13.604 18.9752 13.7233 18.5714 13.7225H17.1429V18.7125C17.1429 19.066 17.0057 19.3624 16.7314 19.602C16.4571 19.8415 16.1181 19.9608 15.7143 19.96C15.3105 19.9592 14.9714 19.8394 14.6971 19.6007C14.4229 19.362 14.2857 19.066 14.2857 18.7125ZM14.2857 11.2275H17.1429V7.485H14.2857V11.2275Z" fill="#B4C2E4"/>
</svg>
