<svg width="23" height="17" viewBox="0 0 23 17" fill="none" xmlns="http://www.w3.org/2000/svg">
<path fill-rule="evenodd" clip-rule="evenodd" d="M17.5882 0.5C17.2294 0.5 16.8853 0.653247 16.6316 0.926027C16.3778 1.19881 16.2353 1.56878 16.2353 1.95455V7.77273H12.1765V6.31818C12.1765 5.93241 12.0339 5.56244 11.7802 5.28966C11.5265 5.01688 11.1824 4.86364 10.8235 4.86364H6.76471C6.40588 4.86364 6.06176 5.01688 5.80803 5.28966C5.55431 5.56244 5.41176 5.93241 5.41176 6.31818V9.22727H1.35294C0.994119 9.22727 0.649993 9.38052 0.396268 9.6533C0.142542 9.92608 0 10.296 0 10.6818V16.5H23V1.95455C23 1.56878 22.8575 1.19881 22.6037 0.926027C22.35 0.653247 22.0059 0.5 21.6471 0.5H17.5882ZM17.5882 15.0455H21.6471V1.95455H17.5882V15.0455ZM16.2353 15.0455V9.22727H12.1765V15.0455H16.2353ZM10.8235 8.5V15.0455H6.76471V6.31818H10.8235V8.5ZM5.41176 15.0455V10.6818H1.35294V15.0455H5.41176Z" fill="#D1D4DC"/>
</svg>
