<svg width="9" height="9" viewBox="0 0 9 9" fill="none" xmlns="http://www.w3.org/2000/svg">
<path d="M8.28959 0.174599C8.13095 0.0861669 7.95647 0.0299295 7.77612 0.00910303C7.59577 -0.0117234 7.4131 0.00326945 7.23854 0.0532244C7.06398 0.103179 6.90096 0.187117 6.75881 0.300236C6.61665 0.413355 6.49815 0.553437 6.41008 0.712472L3.84441 5.33804L2.37604 3.86702C2.24856 3.73479 2.09606 3.62932 1.92745 3.55676C1.75885 3.4842 1.5775 3.446 1.394 3.44441C1.2105 3.44281 1.02852 3.47784 0.858679 3.54745C0.688837 3.61707 0.534535 3.71987 0.404776 3.84986C0.275017 3.97985 0.1724 4.13443 0.102912 4.30458C0.0334244 4.47473 -0.00154239 4.65704 5.21795e-05 4.84087C0.00164674 5.0247 0.0397708 5.20637 0.1122 5.37529C0.184628 5.5442 0.289912 5.69697 0.421906 5.82468L3.18589 8.59365C3.44709 8.85601 3.79949 9 4.16296 9L4.35436 8.98615C4.56619 8.95647 4.76825 8.87793 4.94463 8.75673C5.12101 8.63553 5.2669 8.47497 5.37082 8.28768L8.8258 2.0575C8.91401 1.8986 8.97011 1.72384 8.9909 1.54322C9.01169 1.36259 8.99677 1.17963 8.94697 1.00479C8.89718 0.829944 8.8135 0.666637 8.7007 0.524192C8.58791 0.381747 8.44821 0.262955 8.28959 0.174599Z" fill="#96AEC1"/>
</svg>
