<svg width="17" height="16" viewBox="0 0 17 16" fill="none" xmlns="http://www.w3.org/2000/svg">
<path opacity="0.4" d="M6.10393 6.675L8.64793 8.885C8.73857 8.95978 8.85242 9.00068 8.96993 9.00068C9.08743 9.00068 9.20128 8.95978 9.29193 8.885L11.8359 6.675C12.1229 6.426 11.9189 6 11.5139 6H6.42593C6.02093 6 5.81693 6.426 6.10393 6.675Z" fill="#F6F7F7"/>
<path d="M7.64882 6.75L8.96882 8.094L10.2918 6.75H7.64882ZM5.45782 6.66C4.96082 6.156 5.28682 5.25 6.04782 5.25H11.8918C12.6528 5.25 12.9778 6.156 12.4818 6.66L9.77982 9.41C9.67423 9.51776 9.54821 9.60337 9.40912 9.66182C9.27004 9.72026 9.12069 9.75037 8.96982 9.75037C8.81895 9.75037 8.6696 9.72026 8.53052 9.66182C8.39143 9.60337 8.2654 9.51776 8.15982 9.41L5.45782 6.66Z" fill="#F6F7F7"/>
</svg>
